<svg width="24" height="24" viewBox="0 0 24 24" fill="none" xmlns="http://www.w3.org/2000/svg">
<path d="M20.4277 8.35642C20.2912 8.19022 20.0943 8.08506 19.8802 8.06407C19.6662 8.04307 19.4526 8.10797 19.2864 8.24448C19.1202 8.38098 19.015 8.57792 18.994 8.79197C18.973 9.00601 19.0379 9.21963 19.1744 9.38583L20.5062 11.0015H12.8272V3.5256L14.4428 4.85736C14.524 4.92925 14.6187 4.98408 14.7215 5.01859C14.8242 5.0531 14.9329 5.06657 15.0409 5.05821C15.149 5.04986 15.2543 5.01984 15.3505 4.96994C15.4467 4.92005 15.5319 4.8513 15.601 4.76779C15.6701 4.68428 15.7217 4.58772 15.7527 4.48386C15.7837 4.38 15.7935 4.27096 15.7815 4.16323C15.7695 4.05551 15.7359 3.95131 15.6828 3.85683C15.6296 3.76235 15.558 3.67953 15.4722 3.6133L12.5341 1.1852C12.3892 1.06549 12.2072 1 12.0193 1C11.8315 1 11.6495 1.06549 11.5046 1.1852L8.57338 3.611C8.48758 3.67723 8.41598 3.76005 8.36285 3.85452C8.30972 3.949 8.27615 4.0532 8.26413 4.16093C8.25212 4.26865 8.2619 4.37769 8.29291 4.48155C8.32391 4.58541 8.3755 4.68197 8.4446 4.76548C8.5137 4.84899 8.5989 4.91774 8.69512 4.96763C8.79135 5.01753 8.89663 5.04755 9.00469 5.05591C9.11276 5.06426 9.22141 5.05079 9.32416 5.01628C9.42691 4.98178 9.52167 4.92694 9.60278 4.85505L11.2184 3.52329V10.9946H3.52329L4.85505 9.3789C4.98307 9.21305 5.04164 9.00396 5.01842 8.79574C4.99519 8.58752 4.89198 8.39647 4.73057 8.26291C4.56915 8.12934 4.36216 8.06372 4.15328 8.07987C3.94439 8.09603 3.74995 8.1927 3.611 8.3495L1.1852 11.2877C1.06549 11.4325 1 11.6145 1 11.8024C1 11.9903 1.06549 12.1723 1.1852 12.3171L3.611 15.2484C3.67859 15.3307 3.76173 15.3988 3.85566 15.449C3.9496 15.4992 4.0525 15.5303 4.15849 15.5407C4.26447 15.5511 4.37146 15.5405 4.47336 15.5096C4.57525 15.4786 4.67005 15.4279 4.75234 15.3603C4.83464 15.2927 4.90281 15.2096 4.95297 15.1156C5.00313 15.0217 5.0343 14.9188 5.0447 14.8128C5.05509 14.7068 5.04451 14.5998 5.01355 14.4979C4.9826 14.396 4.93188 14.3012 4.86429 14.219L3.53252 12.6033H11.2115V20.0792L9.59586 18.7474C9.51474 18.6755 9.41999 18.6207 9.31723 18.5862C9.21448 18.5517 9.10584 18.5382 8.99777 18.5466C8.8897 18.5549 8.78442 18.5849 8.6882 18.6348C8.59197 18.6847 8.50677 18.7535 8.43767 18.837C8.36857 18.9205 8.31699 19.0171 8.28598 19.1209C8.25498 19.2248 8.24519 19.3338 8.25721 19.4415C8.26923 19.5493 8.3028 19.6535 8.35593 19.748C8.40905 19.8424 8.48065 19.9252 8.56645 19.9915L11.5046 22.4196C11.6495 22.5393 11.8315 22.6048 12.0193 22.6048C12.2072 22.6048 12.3892 22.5393 12.5341 22.4196L15.4653 19.9938C15.5511 19.9276 15.6227 19.8447 15.6758 19.7503C15.729 19.6558 15.7625 19.5516 15.7746 19.4439C15.7866 19.3361 15.7768 19.2271 15.7458 19.1232C15.7148 19.0194 15.6632 18.9228 15.5941 18.8393C15.525 18.7558 15.4398 18.687 15.3436 18.6371C15.2474 18.5873 15.1421 18.5572 15.034 18.5489C14.9259 18.5405 14.8173 18.554 14.7145 18.5885C14.6118 18.623 14.517 18.6778 14.4359 18.7497L12.8203 20.0815V12.6102H20.5154L19.1836 14.2259C19.0556 14.3917 18.9971 14.6008 19.0203 14.809C19.0435 15.0173 19.1467 15.2083 19.3081 15.3419C19.4695 15.4754 19.6765 15.5411 19.8854 15.5249C20.0943 15.5088 20.2887 15.4121 20.4277 15.2553L22.8535 12.324C22.9732 12.1792 23.0387 11.9972 23.0387 11.8093C23.0387 11.6214 22.9732 11.4394 22.8535 11.2946L20.4277 8.35642Z" fill="#1C274C"/>
</svg>
