<svg width="38" height="38" viewBox="0 0 38 38" fill="none" xmlns="http://www.w3.org/2000/svg">
<circle cx="18.9994" cy="18.9994" r="15.8333" stroke="white" stroke-width="1.5"/>
<rect x="12.666" y="12.666" width="12.6667" height="12.6667" rx="3" fill="#FF3636"/>
<path d="M12.666 18.9993C12.666 16.0138 12.666 14.521 13.5935 13.5935C14.521 12.666 16.0138 12.666 18.9993 12.666C21.9849 12.666 23.4777 12.666 24.4052 13.5935C25.3327 14.521 25.3327 16.0138 25.3327 18.9993C25.3327 21.9849 25.3327 23.4777 24.4052 24.4052C23.4777 25.3327 21.9849 25.3327 18.9993 25.3327C16.0138 25.3327 14.521 25.3327 13.5935 24.4052C12.666 23.4777 12.666 21.9849 12.666 18.9993Z" stroke="#FF3636" stroke-width="1.5"/>
</svg>
