<svg width="24" height="24" viewBox="0 0 24 24" fill="none" xmlns="http://www.w3.org/2000/svg">
<path d="M2 9C2 6.17157 2 4.75736 2.87868 3.87868C3.75736 3 5.17157 3 8 3H16C18.8284 3 20.2426 3 21.1213 3.87868C22 4.75736 22 6.17157 22 9V10C22 12.8284 22 14.2426 21.1213 15.1213C20.2426 16 18.8284 16 16 16H8C5.17157 16 3.75736 16 2.87868 15.1213C2 14.2426 2 12.8284 2 10V9Z" stroke="#666666" stroke-width="1.5"/>
<path d="M12 19V16.5M12 19L18 21M12 19L6 21" stroke="#666666" stroke-width="1.5" stroke-linecap="round"/>
<path d="M11.5 13C11.5 13.2761 11.7239 13.5 12 13.5C12.2761 13.5 12.5 13.2761 12.5 13L11.5 13ZM12.3536 5.64645C12.1583 5.45118 11.8417 5.45118 11.6464 5.64645L8.46447 8.82843C8.2692 9.02369 8.2692 9.34027 8.46447 9.53553C8.65973 9.7308 8.97631 9.7308 9.17157 9.53553L12 6.70711L14.8284 9.53553C15.0237 9.7308 15.3403 9.7308 15.5355 9.53553C15.7308 9.34027 15.7308 9.02369 15.5355 8.82843L12.3536 5.64645ZM12.5 13L12.5 6L11.5 6L11.5 13L12.5 13Z" fill="#666666"/>
</svg>
